<?xml version="1.0" standalone="no"?>
<!DOCTYPE svg PUBLIC "-//W3C//DTD SVG 20010904//EN"
 "http://www.w3.org/TR/2001/REC-SVG-20010904/DTD/svg10.dtd">
<svg version="1.0" xmlns="http://www.w3.org/2000/svg"
 width="500.000000pt" height="500.000000pt" viewBox="0 0 500.000000 500.000000"
 preserveAspectRatio="xMidYMid meet">

<g transform="translate(0.000000,500.000000) scale(0.100000,-0.100000)"
fill="#000000" stroke="none">
<path d="M1477 4723 c-4 -3 -7 -15 -7 -25 0 -11 -7 -18 -20 -18 -13 0 -20 -7
-20 -20 0 -13 -7 -20 -20 -20 -18 0 -20 -7 -20 -80 0 -73 2 -80 20 -80 19 0
20 -8 22 -192 l3 -193 38 -3 37 -3 0 -330 c0 -320 -1 -329 -20 -329 -16 0 -19
8 -22 58 -3 50 -6 57 -25 60 -17 3 -23 10 -23 28 0 17 -5 24 -20 24 -18 0 -20
7 -20 70 0 63 -2 70 -20 70 -20 0 -20 7 -20 426 0 413 -1 426 -19 431 -11 3
-21 15 -23 27 -2 13 -11 22 -24 24 -12 2 -24 12 -27 23 -4 15 -14 19 -51 19
-40 0 -46 -3 -46 -21 0 -12 -8 -23 -20 -26 -16 -4 -20 -14 -20 -48 0 -34 -4
-44 -20 -48 -11 -3 -20 -14 -20 -25 0 -11 -9 -22 -20 -25 -12 -3 -20 -14 -20
-27 0 -13 -8 -24 -20 -27 -11 -3 -20 -14 -20 -25 0 -11 -9 -22 -20 -25 -16 -4
-20 -14 -20 -48 0 -34 -4 -44 -20 -48 -17 -4 -20 -14 -20 -55 0 -42 -3 -52
-20 -57 -18 -6 -20 -15 -20 -111 l0 -104 -25 0 -25 0 2 -352 3 -353 23 -3 c21
-3 22 -8 22 -98 0 -87 1 -94 20 -94 16 0 20 -7 20 -32 0 -48 10 -78 26 -78 8
0 14 -8 14 -19 0 -10 9 -21 20 -24 12 -3 20 -14 20 -26 0 -14 6 -21 20 -21 14
0 20 -7 20 -21 0 -12 8 -23 20 -26 11 -3 20 -12 20 -20 0 -8 9 -17 19 -20 15
-4 21 -15 23 -47 3 -34 7 -42 27 -44 13 -2 26 -12 28 -23 3 -12 14 -19 29 -19
21 0 24 -5 24 -39 0 -22 3 -46 6 -55 4 -12 0 -16 -15 -16 -20 0 -21 -5 -21
-90 0 -82 -2 -90 -19 -90 -10 0 -22 -7 -25 -16 -3 -9 -6 -119 -6 -245 l0 -229
25 -10 c30 -11 35 -50 6 -50 -15 0 -19 -10 -23 -65 -3 -36 -3 -94 -1 -129 5
-52 9 -65 24 -69 25 -7 24 -38 -1 -44 -19 -5 -20 -14 -20 -294 0 -282 0 -289
20 -289 13 0 20 -7 20 -20 0 -14 7 -20 21 -20 12 0 23 -8 26 -20 3 -11 13 -20
23 -20 10 0 20 -9 23 -20 3 -12 14 -20 27 -20 13 0 24 -8 27 -20 5 -17 14 -20
65 -20 51 0 61 -3 65 -20 5 -18 14 -20 99 -20 87 0 94 -1 94 -20 0 -21 19 -25
86 -21 24 2 33 -2 37 -18 4 -18 13 -21 52 -21 38 0 48 -4 52 -20 4 -16 14 -20
49 -20 31 0 44 -4 44 -14 0 -16 21 -26 53 -26 12 0 28 -9 35 -20 9 -14 23 -20
51 -20 22 0 43 -4 46 -10 3 -5 24 -10 45 -10 21 0 42 -4 45 -10 3 -5 24 -10
47 -10 31 0 41 -4 45 -20 4 -14 14 -20 34 -20 22 0 32 -6 38 -24 10 -24 48
-36 123 -36 30 0 37 4 41 23 3 12 4 2 3 -23 -1 -42 1 -45 27 -48 18 -2 27 -9
27 -22 0 -15 11 -19 59 -25 72 -8 99 -1 103 28 3 22 4 22 246 25 l242 2 0 -24
c0 -21 6 -24 55 -31 61 -7 75 -3 75 26 0 12 7 19 20 19 14 0 20 7 20 24 0 16
7 26 21 29 11 3 23 15 26 26 3 12 12 21 19 21 8 0 17 8 21 18 6 17 23 38 56
70 9 9 17 22 17 29 0 7 6 13 14 13 8 0 18 9 21 20 3 11 12 20 20 20 8 0 17 9
20 20 3 11 11 20 16 20 14 0 69 56 69 69 0 6 7 11 15 11 8 0 15 7 15 16 0 9 9
18 20 21 20 5 20 14 20 539 0 344 4 535 10 539 6 3 10 26 10 51 0 26 5 44 11
44 8 0 9 65 4 235 -7 216 -6 235 9 235 25 0 19 93 -6 98 -15 3 -18 -4 -18 -43
0 -38 -4 -48 -20 -52 -11 -3 -20 -12 -20 -19 0 -9 -12 -14 -35 -14 -31 0 -35
-3 -35 -25 0 -23 -3 -25 -52 -26 -29 -1 -83 0 -120 1 -63 2 -67 0 -70 -22 -3
-22 -7 -23 -123 -28 -98 -4 -120 -8 -120 -20 0 -13 -60 -15 -470 -16 -258 -1
-485 0 -502 3 -22 4 -33 11 -33 22 0 14 -10 16 -70 13 -95 -6 -140 3 -140 28
0 15 -7 20 -25 20 -20 0 -24 5 -22 22 2 24 5 23 -105 26 -60 2 -68 4 -68 22 0
18 8 20 93 22 l92 3 0 150 0 150 -47 3 -46 3 -4 64 -3 64 50 3 50 3 -2 47 c-1
41 1 47 20 50 15 2 22 11 24 28 0 14 2 30 3 35 1 6 1 20 0 33 -1 19 3 23 22
20 19 -2 23 1 21 20 -2 17 2 22 22 22 20 0 25 5 25 25 0 14 5 25 10 25 6 0 10
11 10 25 0 19 5 25 21 25 15 0 20 5 17 23 -2 16 1 21 15 19 12 -2 17 4 17 23
0 20 5 25 24 25 19 0 24 4 21 20 -3 14 2 20 16 20 13 0 19 7 19 23 0 21 4 24
43 23 29 -1 41 3 40 12 -2 7 7 12 22 12 14 0 25 5 25 10 0 6 23 10 50 10 43 0
50 3 50 20 0 17 7 20 40 20 28 0 40 4 40 14 0 9 12 16 28 18 19 2 27 8 26 21
-2 15 7 17 63 17 64 0 64 0 61 28 l-3 27 88 3 c82 3 87 2 87 -18 0 -18 6 -20
55 -20 52 0 55 -1 55 -25 0 -24 2 -25 65 -25 58 0 65 -2 65 -20 0 -14 7 -20
21 -20 17 0 20 -5 17 -22 -4 -22 -2 -23 47 -20 46 3 53 1 58 -17 3 -13 13 -21
26 -21 16 0 21 -6 21 -25 0 -18 5 -25 20 -25 15 0 20 -7 20 -25 0 -20 5 -25
25 -25 22 0 25 -4 26 -37 1 -21 1 -41 1 -44 -1 -3 10 -4 23 -1 19 3 25 -1 31
-22 4 -17 13 -26 26 -26 17 0 19 -5 16 -28 -4 -25 -1 -28 19 -24 16 3 23 11
23 28 0 17 6 24 20 24 14 0 20 -7 20 -21 0 -12 -8 -23 -20 -26 -17 -4 -20 -14
-20 -54 0 -46 2 -49 25 -49 23 0 25 -3 25 -50 0 -47 2 -50 25 -50 23 0 25 -4
25 -45 0 -43 1 -45 29 -45 l28 0 6 -82 c4 -46 7 -109 7 -140 0 -51 -2 -58 -20
-58 -32 0 -26 -37 7 -43 49 -9 50 -6 50 152 0 162 12 221 44 221 14 0 19 7 19
25 0 18 5 25 20 25 13 0 20 7 20 20 0 13 -7 20 -20 20 -15 0 -20 7 -20 25 0
20 5 25 25 25 20 0 25 5 25 25 0 18 5 25 20 25 16 0 20 7 20 30 0 23 5 30 19
30 22 0 31 19 31 65 0 56 -15 84 -42 78 -20 -5 -21 -4 -7 8 21 18 34 53 16 43
-9 -5 -9 -4 1 7 18 19 15 26 -10 23 -13 -1 -29 -3 -36 -3 -10 -1 -13 -17 -11
-63 2 -60 1 -63 -19 -60 -20 3 -22 -1 -22 -52 0 -53 -5 -62 -32 -57 -7 1 -11
-17 -11 -45 0 -6 -10 -9 -23 -6 -20 3 -23 9 -19 31 3 14 2 20 -1 13 -5 -10 -9
-9 -18 4 -16 22 -39 9 -31 -17 4 -13 2 -19 -9 -19 -18 0 -22 25 -6 35 5 3 10
19 10 36 0 22 -5 29 -19 29 -14 0 -18 5 -14 20 4 13 0 20 -9 20 -11 0 -14 7
-10 25 4 22 1 25 -22 25 -21 0 -26 5 -26 25 0 18 -5 25 -20 25 -18 0 -20 -7
-20 -70 0 -63 -2 -70 -20 -70 -18 0 -20 7 -20 64 0 56 3 66 20 71 11 3 20 15
20 26 0 12 -7 19 -20 19 -13 0 -20 7 -20 20 0 13 -7 20 -19 20 -13 0 -20 10
-25 31 -10 52 -7 79 9 79 8 0 17 11 21 25 3 14 12 25 20 25 10 0 14 12 14 40
0 22 5 40 10 40 6 0 10 14 10 30 0 20 5 30 15 30 12 0 15 14 15 65 0 61 2 65
23 66 12 0 16 3 10 6 -8 3 -13 23 -13 49 0 40 2 44 25 44 17 0 29 -7 35 -22 5
-15 9 121 9 359 l1 382 28 3 c35 4 39 41 5 46 -15 2 -23 10 -23 23 0 16 -7 19
-55 19 -48 0 -55 -2 -55 -20 0 -11 -7 -20 -15 -20 -13 0 -15 -44 -15 -335 0
-291 -2 -335 -15 -335 -10 0 -15 -10 -15 -30 0 -23 -6 -33 -25 -40 -24 -9 -25
-12 -25 -110 0 -93 -1 -100 -20 -100 -18 0 -20 -7 -20 -71 0 -62 -2 -71 -20
-76 -11 -3 -20 -14 -20 -24 0 -14 -7 -19 -25 -19 -20 0 -25 -5 -25 -25 0 -20
-5 -25 -24 -25 -15 0 -26 -7 -29 -20 -9 -35 -107 -26 -107 10 0 10 -9 20 -20
23 -11 3 -20 12 -20 21 0 12 -14 16 -62 18 -57 3 -63 5 -66 26 -3 19 -9 22
-52 22 -39 0 -49 3 -53 20 -5 18 -14 20 -96 20 -72 0 -93 3 -97 15 -5 13 -39
15 -220 15 -184 0 -214 -2 -214 -15 0 -11 -13 -15 -54 -15 -45 0 -54 -3 -59
-20 -4 -17 -14 -20 -71 -20 -52 0 -66 -3 -66 -15 0 -11 -12 -15 -50 -15 -27 0
-50 -4 -50 -10 0 -5 -22 -10 -49 -10 -44 0 -50 -3 -53 -22 -2 -16 -9 -22 -20
-20 -12 2 -18 -4 -18 -16 0 -23 -18 -32 -65 -32 -24 0 -34 -5 -38 -20 -3 -11
-12 -20 -21 -20 -9 0 -16 -6 -16 -14 0 -18 -14 -23 -56 -18 l-34 4 0 349 c0
339 1 349 19 349 16 0 20 8 23 43 2 35 7 43 26 45 16 3 22 10 22 29 0 16 7 27
19 30 11 3 21 13 24 24 4 14 14 19 41 19 20 0 36 4 36 10 0 5 47 11 108 12
102 3 107 4 110 26 3 21 8 22 88 22 76 0 84 2 84 19 0 13 8 21 23 23 14 2 23
11 25 25 2 15 11 23 30 25 16 2 27 9 27 18 0 8 10 16 23 18 20 3 22 9 22 63 0
52 -2 59 -20 59 -18 0 -20 -7 -20 -55 0 -54 0 -55 -29 -55 -23 0 -30 -5 -33
-22 -3 -22 -7 -23 -143 -28 -136 -5 -140 -6 -143 -27 -3 -19 -10 -23 -37 -23
-27 0 -34 4 -37 23 -2 18 -10 23 -40 25 -33 3 -38 7 -38 27 l0 25 198 2 c195
3 197 3 200 25 3 21 -1 22 -75 25 -67 3 -78 5 -77 21 2 15 -10 17 -122 17
-117 0 -124 1 -124 20 0 18 -8 20 -102 22 l-103 3 0 28 0 27 200 1 c110 0 206
0 213 0 6 -1 12 -10 12 -22 0 -19 5 -20 85 -17 83 3 84 3 87 -21 4 -35 48 -41
48 -7 0 18 -6 25 -22 28 -15 2 -24 11 -26 26 -3 21 -8 22 -88 22 -78 0 -84 2
-84 20 0 20 -5 20 -217 18 -192 -3 -218 -5 -217 -19 1 -9 -5 -16 -12 -16 -8 0
-14 9 -14 19 0 16 -9 18 -68 18 -38 0 -72 -3 -75 -7z m133 -63 c0 -10 4 -20
10 -22 5 -1 7 -13 4 -25 -5 -20 -13 -23 -50 -23 l-44 0 0 44 0 44 40 0 c32 1
40 -3 40 -18z m-360 -40 c0 -25 4 -30 25 -30 l25 0 0 -425 c0 -418 0 -425 20
-425 18 0 20 -7 20 -74 0 -64 2 -74 17 -72 12 0 19 -7 21 -21 2 -15 10 -23 23
-23 16 0 19 -7 19 -44 0 -57 8 -76 31 -76 12 0 19 -7 19 -20 0 -13 7 -20 20
-20 15 0 20 -7 20 -25 0 -16 6 -25 15 -25 12 0 15 -14 15 -65 0 -51 -3 -65
-15 -65 -9 0 -15 -9 -15 -25 0 -18 -5 -25 -19 -25 -13 0 -21 -8 -23 -22 -2
-18 -12 -25 -44 -31 -37 -8 -40 -11 -41 -44 -1 -19 -3 -37 -6 -40 -3 -2 -33
-7 -66 -10 -61 -6 -61 -6 -61 21 0 25 -2 26 -54 26 -50 0 -55 2 -51 21 3 15
-2 23 -15 26 -13 3 -20 14 -20 29 0 17 -6 24 -20 24 -18 0 -20 7 -20 75 0 73
-1 75 -25 75 -22 0 -25 4 -25 35 0 28 -4 35 -19 35 -11 0 -21 -5 -23 -10 -4
-13 0 309 8 588 6 209 7 222 25 222 16 0 19 8 19 45 0 39 3 45 21 45 20 0 21
4 17 85 -2 47 0 85 4 85 4 0 8 10 8 22 0 12 3 18 7 15 11 -12 33 14 33 39 0
15 6 24 15 24 9 0 15 9 15 21 0 12 8 23 20 26 13 3 20 14 20 28 0 22 12 31 48
34 7 1 12 -11 12 -29z m2508 3 c2 -42 -10 -71 -31 -77 -12 -3 -26 -1 -31 4 -7
7 0 10 17 10 25 0 27 3 27 40 0 38 16 58 18 23z m-33 -43 c3 -5 -3 -10 -14
-10 -12 0 -21 5 -21 10 0 6 6 10 14 10 8 0 18 -4 21 -10z m-1690 -20 c4 -6
-25 -10 -79 -10 -51 0 -86 4 -86 10 0 6 33 10 79 10 44 0 83 -4 86 -10z m50 0
c-3 -5 -14 -10 -23 -9 -14 0 -13 2 3 9 27 11 27 11 20 0z m1668 -27 c-7 -2
-13 -20 -13 -39 0 -19 -4 -34 -9 -34 -6 0 -11 -17 -13 -37 -3 -26 -5 -14 -8
34 -3 39 -2 69 2 67 4 -2 9 0 13 6 3 5 14 10 23 9 11 0 12 -3 5 -6z m-2703
-108 c0 -8 -2 -15 -4 -15 -2 0 -6 7 -10 15 -3 8 -1 15 4 15 6 0 10 -7 10 -15z
m-30 -39 c0 -2 -7 -6 -15 -10 -8 -3 -15 -1 -15 4 0 6 7 10 15 10 8 0 15 -2 15
-4z m600 -70 c0 -15 -7 -26 -20 -29 -11 -3 -20 -12 -20 -21 0 -9 -7 -16 -15
-16 -11 0 -15 11 -15 40 0 22 5 40 11 40 6 0 8 -9 4 -21 -7 -21 -7 -21 18 -3
17 13 21 21 13 26 -7 5 -5 8 7 8 11 0 17 -8 17 -24z m150 -26 c0 -5 -7 -10
-15 -10 -8 0 -15 5 -15 10 0 6 7 10 15 10 8 0 15 -4 15 -10z m-777 -7 c-7 -2
-19 -2 -25 0 -7 3 -2 5 12 5 14 0 19 -2 13 -5z m717 -24 c0 -11 -7 -27 -15
-36 -8 -8 -13 -19 -10 -24 4 -5 2 -9 -4 -9 -5 0 -9 8 -9 18 0 9 -3 29 -7 45
-6 24 -5 27 19 27 20 0 26 -5 26 -21z m2027 -86 c-3 -10 -5 -2 -5 17 0 19 2
27 5 18 2 -10 2 -26 0 -35z m-2087 -20 c0 -23 -2 -24 -67 -21 -61 3 -68 5 -71
25 -3 20 2 22 50 25 74 4 88 0 88 -29z m-40 -387 c0 -337 3 -386 26 -386 8 0
14 -8 14 -18 0 -15 -6 -18 -30 -14 -27 4 -35 12 -31 35 0 4 -6 7 -14 7 -13 0
-15 42 -15 320 0 176 4 320 9 320 5 0 11 14 15 30 3 17 10 30 16 30 7 0 10
-109 10 -324z m2125 217 c-3 -19 -9 -33 -12 -30 -3 3 -2 25 2 49 5 24 10 37
12 30 3 -7 2 -29 -2 -49z m-28 15 c-3 -7 -5 -2 -5 12 0 14 2 19 5 13 2 -7 2
-19 0 -25z m-2744 -44 c-8 -4 -9 -13 -5 -27 11 -31 6 -530 -6 -602 -7 -45 -10
27 -11 288 -1 325 0 347 17 346 9 0 12 -3 5 -5z m2634 -620 c-3 -3 -12 -4 -19
-1 -8 3 -5 6 6 6 11 1 17 -2 13 -5z m-2605 -36 c-6 -6 -15 -8 -19 -4 -4 4 -1
11 7 16 19 12 27 3 12 -12z m634 -13 c-4 -11 1 -15 18 -15 20 0 23 -4 21 -30
-2 -26 1 -30 21 -30 23 0 24 -2 24 -79 0 -74 -1 -79 -20 -74 -11 3 -20 8 -21
12 0 3 -2 35 -5 71 -6 95 -5 91 -28 84 -45 -15 -51 -11 -54 34 -3 40 -2 42 23
42 20 0 26 -4 21 -15z m-585 -22 c-8 -15 -10 -15 -11 -2 0 17 10 32 18 25 2
-3 -1 -13 -7 -23z m-87 -15 c-5 -8 -2 -9 9 -5 9 3 19 1 23 -4 4 -7 -3 -9 -17
-7 -23 3 -40 28 -19 28 6 0 8 -5 4 -12z m3051 -106 c-3 -3 -11 0 -17 6 -9 9
-9 12 1 12 7 0 12 11 11 28 -1 15 -1 36 1 47 1 11 4 -4 6 -34 2 -29 2 -56 -2
-59z m-2978 46 c-3 -7 -5 -2 -5 12 0 14 2 19 5 13 2 -7 2 -19 0 -25z m-11 -60
c-20 -14 -24 -8 -13 17 10 20 13 22 18 7 4 -9 1 -20 -5 -24z m574 17 c0 -8 -4
-15 -10 -15 -5 0 -10 7 -10 15 0 8 5 15 10 15 6 0 10 -7 10 -15z m2178 -8 c2
-10 -3 -17 -12 -17 -18 0 -29 16 -21 31 9 14 29 6 33 -14z m-2168 -45 c0 -38
-53 -54 -105 -32 -19 8 -19 9 3 9 15 1 22 7 22 21 0 17 7 20 40 20 32 0 40 -4
40 -18z m2130 -27 c0 -33 -4 -45 -15 -45 -11 0 -15 12 -15 45 0 33 4 45 15 45
11 0 15 -12 15 -45z m230 20 c0 -8 -9 -15 -19 -15 -11 0 -21 -5 -23 -11 -2 -7
-10 -4 -18 7 -9 11 -10 15 -2 10 7 -4 12 -2 12 4 0 7 7 9 16 6 8 -3 12 -2 9 4
-3 6 1 10 9 10 9 0 16 -7 16 -15z m-2292 -42 c2 -14 -4 -23 -16 -27 -21 -7
-32 -43 -32 -102 0 -37 -9 -47 -30 -33 -11 6 -11 9 -2 9 10 0 10 3 0 14 -7 8
-17 13 -23 13 -5 -1 -11 22 -13 51 l-3 54 40 -7 c39 -6 41 -5 41 17 0 43 32
51 38 11z m2162 -2 c0 -10 -7 -21 -15 -25 -11 -4 -15 1 -15 19 0 16 6 25 15
25 8 0 15 -9 15 -19z m55 -11 c3 -5 1 -10 -4 -10 -6 0 -11 5 -11 10 0 6 2 10
4 10 3 0 8 -4 11 -10z m-105 -34 c0 -24 -18 -28 -30 -6 -9 17 -8 20 10 20 11
0 20 -6 20 -14z m-2440 -16 c0 -5 -10 -10 -22 -9 -22 0 -22 1 -3 9 11 5 21 9
23 9 1 1 2 -3 2 -9z m167 -16 c-3 -3 -12 -4 -19 -1 -8 3 -5 6 6 6 11 1 17 -2
13 -5z m-217 -24 c0 -17 -6 -20 -37 -19 -32 2 -33 3 -10 6 16 3 31 11 34 19 7
20 13 17 13 -6z m180 -20 c0 -33 -3 -40 -20 -40 -17 0 -20 7 -20 40 0 33 3 40
20 40 17 0 20 -7 20 -40z m80 -29 c0 -14 -5 -18 -20 -14 -11 3 -20 12 -20 19
0 8 9 14 20 14 13 0 20 -7 20 -19z m2320 4 c0 -8 -7 -15 -15 -15 -16 0 -20 12
-8 23 11 12 23 8 23 -8z m-2360 -51 c0 -20 -4 -25 -16 -20 -9 3 -18 6 -20 6
-2 0 -4 9 -4 20 0 13 7 20 20 20 15 0 20 -7 20 -26z m-40 -37 c0 -19 -10 -27
-26 -20 -21 8 -17 33 6 33 11 0 20 -6 20 -13z m78 1 c-6 -18 -28 -21 -28 -4 0
9 7 16 16 16 9 0 14 -5 12 -12z m142 -173 c0 -93 -1 -95 -23 -95 -23 0 -24 3
-26 95 l-2 95 25 0 26 0 0 -95z m150 0 l0 -95 -35 0 c-35 0 -35 0 -35 45 0 33
-4 45 -15 45 -11 0 -15 12 -15 50 l0 50 50 0 50 0 0 -95z m-260 -189 c0 -3 -4
-8 -10 -11 -5 -3 -10 -1 -10 4 0 6 5 11 10 11 6 0 10 -2 10 -4z m230 -20 c0
-28 -18 -34 -74 -26 -31 4 -40 10 -42 28 -4 21 0 22 56 22 57 0 60 -1 60 -24z
m-470 -36 c0 -13 7 -20 20 -20 15 0 20 -7 20 -25 0 -18 5 -25 19 -25 28 0 31
-24 31 -237 l0 -193 -25 0 c-20 0 -25 -5 -25 -24 0 -19 -4 -23 -20 -19 -11 3
-20 14 -20 24 0 12 -7 19 -19 19 -14 0 -21 8 -23 28 -3 24 -7 27 -35 24 -36
-4 -50 10 -28 28 10 9 15 9 15 1 0 -17 27 -13 34 5 11 29 7 43 -14 39 -27 -5
-32 21 -28 128 2 47 0 83 -4 80 -10 -6 -10 1 2 31 7 19 17 26 35 26 16 0 25 6
25 15 0 11 -12 15 -49 15 l-50 0 -4 -52 -3 -53 -2 58 -2 57 55 0 c52 0 55 1
55 25 0 21 -5 25 -30 25 -23 0 -30 4 -30 20 0 17 7 20 50 20 43 0 50 -3 50
-20z m130 0 c0 -13 -7 -20 -20 -20 -13 0 -20 7 -20 20 0 13 7 20 20 20 13 0
20 -7 20 -20z m267 -16 c-3 -3 -12 -4 -19 -1 -8 3 -5 6 6 6 11 1 17 -2 13 -5z
m-207 -311 c0 -142 3 -288 7 -325 l6 -68 -38 0 -38 0 6 78 c4 42 7 188 8 325
l0 247 25 0 24 0 0 -257z m458 220 c-26 -2 -71 -2 -100 0 -29 2 -8 3 47 3 55
0 79 -1 53 -3z m1630 -111 c-3 -104 -4 -107 -25 -105 -18 2 -23 -2 -23 -22 0
-27 -12 -30 -69 -19 l-31 7 0 93 0 94 33 0 c38 0 52 8 61 35 4 13 16 21 31 23
l26 2 -3 -108z m-2401 66 c-3 -8 -6 -5 -6 6 -1 11 2 17 5 13 3 -3 4 -12 1 -19z
m2253 10 c0 -10 -21 -12 -82 -8 l-83 4 60 6 c99 11 105 11 105 -2z m350 -112
c0 -25 -15 -37 -37 -28 -30 10 -11 49 25 51 6 1 12 -10 12 -23z m-2623 -23
c-3 -10 -5 -4 -5 12 0 17 2 24 5 18 2 -7 2 -21 0 -30z m2577 -12 c4 -5 3 -17
0 -26 -10 -24 -48 -15 -52 13 -3 18 1 22 22 22 14 0 27 -4 30 -9z m53 -58 c-3
-10 -5 -4 -5 12 0 17 2 24 5 18 2 -7 2 -21 0 -30z m-107 -3 c0 -16 -7 -20 -30
-20 -23 0 -30 4 -30 20 0 16 7 20 30 20 23 0 30 -4 30 -20z m-2010 -24 c0 -2
-13 -6 -29 -8 -17 -2 -28 -1 -25 4 5 8 54 12 54 4z m2110 -33 c0 -41 6 -41 14
1 8 44 16 44 16 -2 0 -35 -3 -41 -22 -44 -15 -2 -23 -10 -23 -23 0 -13 -8 -21
-22 -23 -19 -3 -23 -10 -23 -43 0 -35 -3 -39 -25 -39 -18 0 -25 -5 -25 -20 0
-15 -7 -20 -25 -20 -28 0 -25 -26 3 -33 12 -3 10 -5 -6 -6 -17 -1 -24 -9 -28
-31 -4 -16 -12 -30 -19 -30 -17 0 -28 -30 -12 -31 9 0 9 -2 0 -6 -8 -3 -14
-26 -14 -61 -1 -32 -4 -47 -6 -34 -3 14 -12 22 -24 22 -17 0 -19 -8 -19 -75 0
-68 -2 -75 -20 -75 -13 0 -20 -7 -20 -20 0 -13 7 -20 20 -20 11 0 20 -4 20
-10 0 -5 -11 -10 -25 -10 -25 0 -25 -1 -25 -80 0 -79 0 -80 -25 -80 l-25 0 0
314 0 313 25 -5 c23 -4 25 -1 25 32 0 32 3 36 25 36 20 0 25 5 25 24 0 20 6
24 46 29 44 5 69 21 58 39 -3 4 20 8 50 8 49 0 56 2 56 20 0 15 7 20 25 20 22
0 25 -4 25 -37z m-1810 -23 c0 -11 1 -21 3 -21 1 -1 56 -4 122 -8 115 -6 120
-7 123 -28 3 -23 5 -23 153 -23 l149 0 0 -30 c0 -28 2 -30 40 -30 l40 0 0
-355 c0 -348 0 -355 -20 -355 -17 0 -20 7 -20 45 0 37 -3 45 -19 45 -16 0 -20
10 -26 65 -3 35 -4 69 0 75 4 6 -4 10 -19 10 -23 0 -26 4 -26 35 0 31 -3 35
-25 35 -23 0 -25 3 -25 51 0 46 -2 50 -22 47 -19 -2 -24 2 -26 25 -2 19 -9 27
-23 27 -14 0 -19 7 -19 25 0 20 -5 25 -25 25 -20 0 -25 5 -25 24 0 19 -6 25
-27 28 -22 2 -27 8 -25 25 2 17 -3 22 -25 25 -20 2 -29 9 -31 26 -2 14 -10 22
-24 22 -11 0 -22 8 -25 20 -4 16 -14 20 -50 20 -36 0 -46 4 -50 20 -4 14 -14
20 -33 20 -23 0 -27 4 -23 20 4 15 0 20 -16 20 -14 0 -21 6 -21 19 0 17 -8 20
-47 23 -41 3 -48 6 -51 26 -3 21 0 22 67 22 64 0 71 -2 71 -20z m790 -805 c0
-727 -2 -825 -15 -825 -13 0 -15 96 -15 805 l0 805 -255 0 c-248 0 -255 1
-255 20 0 20 7 20 270 20 l270 0 0 -825z m760 805 c0 -19 -7 -20 -115 -20
-108 0 -115 1 -115 20 0 19 7 20 115 20 108 0 115 -1 115 -20z m-2215 -316
c-6 -48 -9 -54 -30 -54 -17 0 -25 6 -27 23 -2 14 -11 23 -25 25 -19 3 -23 10
-23 37 0 34 0 34 53 37 28 2 54 -1 56 -5 2 -5 0 -33 -4 -63z m76 -406 c1 -194
2 -371 3 -393 l1 -40 -42 0 c-46 0 -50 3 -30 24 10 11 10 13 0 7 -8 -4 -13 -1
-13 9 0 13 4 14 20 5 14 -7 20 -7 20 0 0 5 -5 10 -11 10 -5 0 -8 4 -5 9 3 5
-3 11 -14 14 -19 5 -20 14 -20 311 l0 306 25 0 c23 0 25 4 25 45 0 38 3 45 20
45 20 0 20 -7 21 -352z m109 -63 l0 -415 -27 0 -28 0 0 415 0 415 28 0 27 0 0
-415z m-317 -238 c9 -6 8 -7 -3 -4 -13 3 -15 44 -15 288 l0 284 2 -280 c3
-207 7 -281 16 -288z m34 547 c-3 -3 -12 -4 -19 -1 -8 3 -5 6 6 6 11 1 17 -2
13 -5z m2375 -144 c6 0 8 -9 5 -20 -3 -13 0 -20 9 -20 9 0 14 -11 14 -31 0
-28 2 -31 25 -25 24 6 25 5 25 -48 0 -88 9 -116 36 -116 23 0 24 -3 24 -70 0
-68 1 -70 25 -70 25 0 25 -1 25 -90 0 -88 0 -90 -24 -90 -19 0 -23 -4 -19 -20
4 -15 0 -20 -16 -20 -15 0 -21 -6 -21 -21 0 -17 -5 -20 -24 -17 -19 4 -22 1
-18 -14 3 -13 -1 -18 -17 -18 -15 0 -21 -6 -21 -21 0 -12 -5 -19 -12 -16 -7 2
-12 9 -11 15 2 7 -4 9 -14 5 -11 -4 -13 -8 -5 -11 7 -2 12 -15 12 -28 0 -17
-6 -24 -20 -24 -13 0 -20 -7 -20 -20 0 -11 -7 -20 -15 -20 -9 0 -15 -9 -15
-25 0 -21 -5 -25 -30 -25 -16 0 -30 -4 -30 -10 0 -5 -6 -7 -13 -4 -9 3 -13 -6
-14 -32 -1 -44 -17 -64 -35 -45 -11 10 -10 14 5 22 16 9 17 34 17 299 0 158 3
295 6 304 3 9 18 16 33 16 l26 0 -3 75 c-4 75 -4 75 22 75 23 0 26 4 26 34 0
32 2 34 30 30 27 -5 30 -2 30 20 0 14 -4 26 -10 26 -5 0 -9 19 -9 43 1 23 3
34 6 25 2 -10 9 -18 15 -18z m-2299 -487 c-7 -2 -19 -2 -25 0 -7 3 -2 5 12 5
14 0 19 -2 13 -5z m1277 -102 c0 -29 5 -41 18 -44 10 -3 6 -5 -10 -6 -27 -1
-28 1 -28 44 0 25 5 45 10 45 6 0 10 -18 10 -39z m-13 -263 c-2 -35 -3 -9 -3
57 0 66 1 94 3 63 2 -32 2 -86 0 -120z m34 19 c-13 -13 -15 24 -3 63 6 22 7
21 10 -14 2 -21 -1 -43 -7 -49z m6 -64 c-3 -10 -5 -4 -5 12 0 17 2 24 5 18 2
-7 2 -21 0 -30z"/>
<path d="M1628 3253 c6 -2 10 -9 7 -14 -4 -5 1 -6 10 -2 13 5 14 7 3 14 -7 5
-17 8 -23 8 -5 0 -4 -3 3 -6z"/>
<path d="M1328 2184 c-2 -26 -1 -69 3 -98 5 -41 6 -32 8 47 1 102 -4 129 -11
51z"/>
<path d="M3486 2183 c10 -40 14 -41 14 -5 0 18 -5 32 -10 32 -6 0 -8 -11 -4
-27z"/>
<path d="M3500 2120 c-1 -8 -1 -21 0 -29 1 -8 -4 -17 -11 -22 -8 -4 -11 -10
-8 -13 13 -14 30 14 26 45 -2 19 -5 27 -7 19z"/>
<path d="M2450 1790 c0 -16 7 -20 30 -20 23 0 30 4 30 20 0 16 -7 20 -30 20
-23 0 -30 -4 -30 -20z"/>
<path d="M3662 730 c0 -14 2 -19 5 -12 2 6 2 18 0 25 -3 6 -5 1 -5 -13z"/>
<path d="M3463 540 c0 -36 2 -50 4 -32 2 17 2 47 0 65 -2 17 -4 3 -4 -33z"/>
<path d="M3830 4600 c0 -43 3 -50 20 -50 18 0 20 -7 20 -55 0 -52 1 -55 25
-55 23 0 24 -3 27 -77 3 -72 5 -78 26 -81 19 -3 22 -9 22 -53 0 -42 3 -49 20
-49 19 0 20 -7 20 -104 0 -101 1 -105 23 -108 l22 -3 -1 -352 c0 -334 1 -353
18 -353 10 0 18 8 19 18 1 26 1 452 0 578 -1 102 -3 112 -21 117 -17 4 -20 15
-22 108 -2 85 -6 104 -18 104 -11 0 -16 14 -18 53 -3 44 -6 52 -23 52 -17 0
-19 7 -19 59 0 72 -6 91 -31 91 -16 0 -19 8 -19 43 0 47 -7 60 -32 70 -14 5
-18 18 -18 52 0 38 -3 45 -20 45 -17 0 -20 -7 -20 -50z"/>
<path d="M2328 4593 c7 -3 16 -2 19 1 4 3 -2 6 -13 5 -11 0 -14 -3 -6 -6z"/>
<path d="M3113 3463 c15 -2 37 -2 50 0 12 2 0 4 -28 4 -27 0 -38 -2 -22 -4z"/>
<path d="M2600 3379 c0 -52 23 -48 28 4 3 28 0 37 -12 37 -12 0 -16 -10 -16
-41z"/>
<path d="M2500 3364 c0 -31 23 -28 28 4 2 15 -2 22 -12 22 -11 0 -16 -9 -16
-26z"/>
<path d="M2552 3368 c2 -13 10 -23 18 -23 8 0 16 10 18 23 3 17 -2 22 -18 22
-16 0 -21 -5 -18 -22z"/>
<path d="M2652 3215 c0 -16 2 -22 5 -12 2 9 2 23 0 30 -3 6 -5 -1 -5 -18z"/>
<path d="M2411 3193 c0 -11 3 -13 6 -5 2 6 9 10 14 6 5 -3 9 0 9 5 0 6 -7 11
-15 11 -8 0 -15 -8 -14 -17z"/>
<path d="M2338 3153 c12 -2 32 -2 45 0 12 2 2 4 -23 4 -25 0 -35 -2 -22 -4z"/>
<path d="M2538 3103 c12 -2 30 -2 40 0 9 3 -1 5 -23 4 -22 0 -30 -2 -17 -4z"/>
<path d="M3233 3003 c9 -2 23 -2 30 0 6 3 -1 5 -18 5 -16 0 -22 -2 -12 -5z"/>
<path d="M3370 2859 c-12 -8 -10 -9 9 -4 15 5 27 2 33 -6 8 -11 9 -11 5 1 -5
19 -27 23 -47 9z"/>
<path d="M2062 2810 c0 -19 2 -27 5 -17 2 9 2 25 0 35 -3 9 -5 1 -5 -18z"/>
<path d="M2690 2795 c0 -20 5 -25 25 -25 20 0 25 5 25 25 0 20 -5 25 -25 25
-20 0 -25 -5 -25 -25z"/>
<path d="M3452 2755 c0 -16 2 -22 5 -12 2 9 2 23 0 30 -3 6 -5 -1 -5 -18z"/>
<path d="M2159 2666 c-1 -20 -2 -42 -3 -48 -1 -7 9 -14 22 -16 22 -3 23 -1 20
45 -2 36 -7 49 -20 51 -14 3 -18 -4 -19 -32z"/>
<path d="M3538 2673 c7 -3 16 -2 19 1 4 3 -2 6 -13 5 -11 0 -14 -3 -6 -6z"/>
<path d="M2942 2608 l3 -43 68 -3 c52 -2 67 -6 67 -18 0 -11 9 -14 38 -12 23
2 36 8 35 16 -2 8 9 12 32 12 20 0 35 5 35 12 0 6 7 19 16 29 9 10 14 25 11
34 -5 13 -31 15 -157 15 l-151 0 3 -42z"/>
<path d="M2110 2575 c0 -18 -5 -25 -19 -25 -21 0 -31 -40 -31 -122 l0 -48 38
0 c20 0 32 4 25 8 -16 10 -13 70 4 76 7 3 13 1 13 -3 0 -5 7 -12 16 -15 14 -5
15 -4 5 8 -10 11 -8 17 6 25 14 8 15 10 3 11 -13 0 -13 1 0 10 10 6 11 10 3
10 -9 0 -13 16 -13 45 0 41 -2 45 -25 45 -20 0 -25 -5 -25 -25z"/>
<path d="M2250 2550 c0 -47 -2 -50 -25 -50 -23 0 -25 -4 -25 -40 0 -33 -4 -42
-22 -49 -13 -5 -30 -6 -38 -3 -13 5 -13 3 -1 -11 11 -14 33 -17 142 -17 112 0
129 2 129 16 0 10 6 14 15 10 15 -5 18 1 18 36 0 9 2 17 6 16 30 -3 42 4 39
25 -3 23 -43 33 -43 10 0 -20 -15 -27 -16 -7 0 18 -1 18 -9 -1 -5 -11 -9 -15
-9 -8 -1 6 -10 9 -20 6 -18 -5 -20 1 -23 53 l-3 59 -57 3 -58 3 0 -51z"/>
<path d="M2410 2555 c0 -18 5 -25 20 -25 15 0 20 7 20 25 0 18 -5 25 -20 25
-15 0 -20 -7 -20 -25z"/>
<path d="M2496 2532 c-7 -12 7 -28 32 -34 18 -5 22 -2 22 18 0 19 -5 24 -24
24 -14 0 -27 -4 -30 -8z"/>
<path d="M2123 2436 c0 -8 6 -12 14 -9 7 3 10 9 7 14 -8 14 -21 11 -21 -5z"/>
</g>
</svg>
